<svg width="119" height="111" viewBox="0 0 119 111" fill="none" xmlns="http://www.w3.org/2000/svg">
<path d="M102.322 104.007C78.8516 108.022 52.2486 112.574 27.4702 106.692C22.9334 105.599 17.0841 103.91 12.0768 100.525C6.61434 96.8838 2.98153 93.2854 1.75153 86.6071C0.72879 80.9528 1.87822 74.6866 4.9889 68.9622C8.03561 63.2574 12.6426 58.3891 17.0355 53.6659C17.0911 53.6061 17.1207 53.5267 17.1178 53.4451C17.1148 53.3635 17.0796 53.2864 17.0198 53.2308C16.9601 53.1752 16.8806 53.1456 16.799 53.1485C16.7174 53.1515 16.6403 53.1867 16.5847 53.2465C12.1235 58.0232 7.53438 62.8909 4.44708 68.6707C1.27122 74.5132 0.0990299 80.9252 1.14637 86.7178C2.41327 93.5868 6.29638 97.4102 11.7348 101.036C22.2126 108.118 40.6607 110.12 53.5019 110.12C70.2367 110.12 87.0084 107.251 102.426 104.614C102.507 104.6 102.579 104.555 102.626 104.488C102.673 104.422 102.692 104.339 102.678 104.259C102.664 104.178 102.619 104.107 102.553 104.06C102.486 104.012 102.404 103.994 102.323 104.007H102.322Z" fill="black"/>
<path d="M110.89 99.4971C88.3815 102.88 62.8725 106.713 38.973 101.071C35.1907 100.173 31.2652 98.9965 28.181 96.4897C23.1011 92.3446 22.7149 86.6387 27.1183 80.8362C32.4109 73.9844 39.6722 69.0134 46.0633 64.8923C46.1282 64.8466 46.1729 64.7776 46.1881 64.6997C46.2032 64.6218 46.1877 64.5411 46.1448 64.4744C46.1018 64.4077 46.0347 64.3601 45.9575 64.3418C45.8804 64.3234 45.799 64.3355 45.7306 64.3757C39.2965 68.5245 31.9835 73.5306 26.6299 80.4622C21.9965 86.5673 22.4197 92.5826 27.7923 96.967C30.9737 99.55 34.9779 100.754 38.8315 101.669C62.434 107.242 87.3311 103.659 110.982 100.105C111.059 100.09 111.128 100.045 111.174 99.9802C111.219 99.9155 111.238 99.8357 111.227 99.7574C111.215 99.679 111.173 99.6082 111.111 99.5598C111.048 99.5113 110.969 99.4888 110.89 99.4971Z" fill="black"/>
<path d="M105.659 102.438C90.9735 104.708 76.1657 106.105 61.3142 106.62C55.1102 106.804 48.9009 106.564 42.7295 105.903C33.1091 104.793 23.7082 101.37 17.5834 96.7468C14.395 94.3398 12.2026 90.8447 11.4236 86.9264C8.95251 74.3454 22.8743 61.9605 27.1996 58.4636C27.2606 58.4116 27.2989 58.3378 27.3063 58.2579C27.3137 58.178 27.2896 58.0984 27.2392 58.0361C27.1887 57.9737 27.1158 57.9336 27.0362 57.9242C26.9565 57.9148 26.8763 57.9369 26.8127 57.9858C22.4192 61.5362 8.28278 74.1264 10.8227 87.0451C11.6307 91.1107 13.9049 94.7375 17.2126 97.2357C23.4241 101.922 32.9344 105.39 42.6613 106.512C48.8622 107.175 55.101 107.415 61.3345 107.233C76.2108 106.717 91.0434 105.319 105.754 103.046C105.835 103.034 105.907 102.99 105.955 102.924C106.003 102.858 106.023 102.775 106.011 102.695C105.998 102.614 105.954 102.542 105.888 102.494C105.822 102.445 105.74 102.425 105.659 102.438Z" fill="black"/>
<path d="M4.2176 75.9548C4.20988 75.999 4.21193 76.0444 4.22361 76.0877C4.23529 76.131 4.25631 76.1713 4.28521 76.2056C4.3141 76.24 4.35017 76.2676 4.39086 76.2865C4.43156 76.3054 4.47591 76.3152 4.52079 76.3152C5.32644 76.3152 4.0208 74.5889 8.69479 68.0127C11.9774 63.3199 15.7074 58.9565 19.8324 54.9839C19.8911 54.9268 19.9246 54.8488 19.9257 54.7669C19.9268 54.6851 19.8954 54.6062 19.8383 54.5475C19.7812 54.4889 19.7032 54.4553 19.6213 54.4543C19.5395 54.4532 19.4606 54.4846 19.4019 54.5417C15.2497 58.5411 11.4954 62.9339 8.19173 67.6584C6.53369 69.9917 4.76495 72.801 4.2176 75.9548Z" fill="black"/>
<path d="M19.3859 89.935C20.3084 93.847 23.6497 97.5892 28.5611 100.205C32.5347 102.32 36.8686 103.364 41.7129 104.418C41.7531 104.428 41.795 104.431 41.8361 104.425C41.8772 104.419 41.9167 104.405 41.9522 104.383C41.9877 104.361 42.0184 104.333 42.0425 104.299C42.0666 104.265 42.0836 104.227 42.0925 104.186C42.1013 104.145 42.1019 104.103 42.094 104.063C42.0862 104.022 42.0702 103.983 42.047 103.949C42.0238 103.914 41.9938 103.885 41.9589 103.862C41.924 103.84 41.8849 103.824 41.8439 103.817C37.0469 102.772 32.7542 101.74 28.8502 99.6624C24.0956 97.1317 20.8638 93.5364 19.9843 89.7984C18.0698 81.5015 24.2192 71.814 30.9775 66.9112C31.0115 66.8881 31.0406 66.8583 31.0629 66.8237C31.0853 66.7891 31.1004 66.7504 31.1075 66.7098C31.1146 66.6693 31.1135 66.6277 31.1042 66.5876C31.095 66.5475 31.0777 66.5096 31.0535 66.4763C31.0293 66.4429 30.9987 66.4148 30.9634 66.3935C30.9282 66.3723 30.889 66.3583 30.8482 66.3525C30.8075 66.3466 30.766 66.349 30.7261 66.3596C30.6863 66.3701 30.649 66.3885 30.6165 66.4137C23.6983 71.4284 17.4112 81.3797 19.3859 89.935Z" fill="black"/>
<path d="M28.5507 75.0451C28.6075 75.1036 28.6853 75.1371 28.7668 75.1382C28.8484 75.1394 28.927 75.1081 28.9855 75.0513C36.5254 67.6802 45.2464 61.6236 54.7866 57.1326C54.8522 57.0935 54.9009 57.0313 54.9231 56.9582C54.9454 56.8851 54.9396 56.8064 54.907 56.7373C54.8744 56.6682 54.8172 56.6137 54.7467 56.5845C54.6761 56.5553 54.5971 56.5534 54.5252 56.5791C44.9228 61.098 36.1452 67.1936 28.5568 74.6128C28.4991 74.6695 28.4661 74.7467 28.4649 74.8277C28.4638 74.9086 28.4946 74.9868 28.5507 75.0451Z" fill="black"/>
<path d="M56.1421 33.8434C59.409 35.2179 64.1703 27.98 63.9317 22.6012C63.7748 19.0779 61.3813 18.0434 58.7331 20.4143C54.818 23.9173 52.7885 32.4314 56.1421 33.8434Z" fill="black"/>
<path d="M118.131 28.6306C117.81 26.1795 117.012 23.815 115.782 21.6706C114.84 20.0117 113.618 18.529 112.169 17.2887C112.348 17.0323 111.943 16.2383 111.842 16.0587C110.924 14.4278 108.588 12.9733 105.144 10.9647C100.388 8.16153 95.5046 4.9992 90.3152 3.22554C84.5133 1.24155 79.0398 0.509699 74.0313 1.05397C72.0633 1.29997 66.7078 1.69111 62.5886 4.63389C57.4041 8.33742 58.1606 7.98564 57.9306 7.9801C54.9171 7.9309 51.9651 9.11908 48.9042 11.6455C46.2197 13.8595 44.213 15.6793 41.2345 18.595C36.1227 23.7044 34.5526 27.0254 32.1664 33.8033C29.8294 36.3962 27.5305 39.0019 25.2697 41.6206C22.3676 44.984 21.8872 49.8671 21.2107 54.193C21.2017 54.2521 21.2101 54.3126 21.2349 54.367C21.2596 54.4214 21.2997 54.4674 21.3502 54.4993C21.4007 54.5313 21.4595 54.5479 21.5192 54.547C21.579 54.5461 21.6372 54.5278 21.6868 54.4944L26.3337 55.3111C26.6331 55.6443 27.0277 55.8775 27.4641 55.979C28.8995 56.2865 30.7309 56.9562 32.1873 56.3086C35.3711 56.8886 49.3716 59.2508 53.5561 60.0337C53.6186 60.0447 53.6829 60.0363 53.7406 60.0097C53.9208 60.094 53.4367 60.2557 60.0431 57.3652C60.1341 59.7699 60.9656 61.4685 62.1808 61.7157C63.1132 62.0002 64.0881 62.1195 65.0615 62.0681C66.8032 61.9919 68.356 59.6801 68.7515 56.5694C68.8893 55.5715 68.8766 54.5586 68.714 53.5645L90.8527 43.8592C90.1326 47.7116 90.838 50.7128 92.7008 51.6814C94.355 52.4796 96.0578 53.1729 97.7992 53.757C98.0541 53.8083 98.3134 53.8353 98.5734 53.8376C101.492 53.8376 104.935 50.5689 107.034 45.671C107.968 43.5922 108.468 41.3446 108.503 39.0659C108.834 39.2821 109.207 39.4242 109.598 39.4826C109.989 39.541 110.388 39.5142 110.768 39.4041C113.089 38.0142 115.15 35.0481 116.586 33.4694C118.186 31.7794 118.4 30.7185 118.131 28.6306ZM79.9709 17.7328C81.5945 16.8158 82.6013 16.1633 84.3079 15.7826C88.0077 15.2906 92.2992 17.0618 95.7143 18.571C100.589 20.6878 105.672 23.1368 109.827 26.6982C110.526 27.2507 111.174 27.8649 111.762 28.5334C111.762 28.542 111.769 28.55 111.773 28.558C112.629 30.272 111.549 31.9903 110.274 33.4319L79.9709 17.7328ZM54.2565 24.9283C58.3408 15.2211 66.0898 12.0569 66.4668 20.5815C66.4949 23.5842 65.877 26.5579 64.655 29.3009C63.075 33.0567 59.2663 38.8383 55.5917 38.6028C51.0518 38.3125 52.1815 29.8661 54.2565 24.927V24.9283ZM25.8288 54.5977L22.1751 53.9563C22.6558 53.4469 23.1921 52.993 23.7741 52.6033C23.87 52.5418 23.9334 52.471 24.0201 52.0627C24.1043 51.6679 24.2101 50.9557 24.3891 49.6193C24.6356 47.237 25.4172 44.9412 26.6756 42.9035C27.4887 41.6268 28.7759 40.4146 30.231 40.8039C30.4284 40.8786 30.6082 40.9934 30.7592 41.1409C26.4782 41.0923 23.6209 50.5363 25.8288 54.5977ZM35.2863 44.2042C34.5716 44.8743 33.8128 45.4958 33.0151 46.0646C33.0071 45.9133 32.9597 45.4797 32.9462 45.3266C33.4997 44.8401 34.1965 44.2706 34.9757 43.6519C35.0446 43.7645 35.2272 44.0837 35.2863 44.2048V44.2042ZM57.8205 10.592C59.4281 8.90383 62.6415 6.79807 64.9034 7.27716C65.8069 7.56701 66.5702 8.18257 67.0449 9.00408C63.6107 7.51086 58.5843 10.1246 56.1833 13.0631C55.9705 13.3234 55.7655 13.5899 55.5683 13.8626C56.2136 12.7034 56.9677 11.6083 57.8205 10.592ZM71.8751 21.654C71.9486 22.0045 72.0038 22.3586 72.0405 22.7149C71.9827 22.686 69.2982 21.3619 67.9907 20.8379C68.3005 19.6185 68.3952 18.3544 68.2706 17.1024C68.5639 17.2672 68.8511 17.4382 69.1279 17.6122C69.1062 18.3279 69.0394 19.0415 68.928 19.7487C68.8038 20.619 70.2681 21.202 71.8751 21.654ZM112.706 29.9879C112.9 30.384 112.995 30.8218 112.982 31.263C112.969 31.7042 112.847 32.1355 112.629 32.5192C111.474 34.5875 109.633 36.24 107.849 37.8334L107.253 36.6416C109.48 35.4109 112.619 32.443 112.706 29.9879ZM115.135 24.8631C104.588 14.9487 90.7728 10.2759 81.4371 10.6609C77.236 10.8343 72.297 13.6307 71.3861 14.3306C71.3427 13.8206 71.2771 13.3124 71.1893 12.806C73.809 10.9613 76.7304 9.5877 79.8221 8.74701C83.2337 7.84228 86.8278 7.88758 90.2156 8.878C96.5034 10.8128 103.712 14.5975 109.041 18.0292C115.382 22.1497 115.794 23.8877 116.322 24.1878C116.737 25.1982 117.058 26.2441 117.284 27.3126C116.67 26.4112 115.949 25.5886 115.135 24.8631ZM115.386 22.2247C113.837 20.6888 112.125 19.3254 110.282 18.1584C102.386 13.0151 96.4246 10.3571 91.3909 8.61478C84.1732 6.11604 77.4341 7.83066 71.0627 12.1516C70.8194 11.0023 70.4694 9.87807 70.0171 8.79375C72.7231 7.40569 75.1327 6.35343 77.3307 5.43154C78.4655 4.9407 79.666 4.61872 80.894 4.47583C85.8755 4.02258 90.4745 5.16586 96.2813 8.29867C100.046 10.2808 103.555 12.3626 107.121 14.5022C110.586 16.5089 113.49 18.7678 115.386 22.2247ZM34.2936 29.8723C38.1208 25.7714 42.0137 21.2623 46.093 17.4388C49.125 14.3775 52.3301 11.4927 55.6926 8.79867C56.2092 8.69402 56.7331 8.62926 57.2596 8.60494C49.6754 14.7439 39.7727 25.4049 33.2451 32.6084C33.5852 31.6705 33.9296 30.7585 34.2936 29.8723ZM26.4905 54.5104C25.6221 53.1574 25.4296 50.6359 25.9985 48.0978C26.8226 44.4213 28.7992 41.711 30.3859 42.0511C31.8189 42.4613 31.7961 43.7424 31.7961 45.6796C31.796 45.7386 31.8129 45.7963 31.8447 45.8459C31.8765 45.8956 31.9219 45.935 31.9755 45.9596C32.0291 45.9842 32.0886 45.9928 32.147 45.9845C32.2054 45.9762 32.2601 45.9512 32.3047 45.9127C32.424 48.6685 31.5052 52.5498 29.5877 54.5036C28.3275 55.7385 27.1406 55.527 26.4905 54.5104ZM35.464 43.2688C38.6497 40.7737 47.8599 34.0653 47.9657 33.9903C49.291 33.0524 50.7984 31.994 50.9743 30.3464C51.5389 24.8631 53.1551 17.7322 56.6587 13.4493C59.0788 10.4924 64.7226 7.68552 67.6248 10.0668C68.5939 12.2137 69.1079 14.538 69.1346 16.8933C67.8914 16.1319 66.5586 15.5276 65.1666 15.0944C55.6987 12.5114 47.2911 36.2314 54.2639 39.1655C54.2719 39.1692 59.2626 41.0105 60.2171 41.2036C66.7005 42.5031 73.9347 29.6097 72.5356 21.8311C73.1358 21.9757 73.2219 21.9314 73.292 21.8963C73.292 21.8963 77.5128 19.151 79.3344 18.0956L94.9788 26.2013L80.359 33.9645L72.169 30.6029C71.9614 31.4009 71.6539 32.1696 71.2539 32.8907L77.8012 35.3224L47.5487 51.3868L36.9295 49.0098C36.8524 49.6037 36.7432 50.1929 36.6024 50.7749L45.3292 52.5651L37.6583 56.6383L32.9935 55.8253C36.0101 53.5319 37.5728 46.6648 35.464 43.2688ZM53.7406 59.4531C53.6791 59.4242 54.5235 59.5761 38.646 56.8086L46.2775 52.7583L61.2583 55.8093C61.9773 55.4821 62.631 55.2207 63.3493 54.8941L48.4731 51.5922L78.5706 35.6102L93.94 41.3629C94.79 40.9712 95.3779 40.775 96.0968 40.4478L81.097 34.2689L95.6417 26.5451L109.838 33.8999C108.919 34.8438 107.856 35.6361 106.689 36.2473C55.1717 58.8252 53.8027 59.4218 53.7406 59.4531ZM60.6519 57.0952L61.1759 56.8658C61.2811 57.7398 61.6913 58.7988 62.5584 58.7988C63.468 58.7988 64.3505 57.4999 64.5646 55.8259C64.6172 55.6724 64.6417 55.5108 64.6371 55.3486L65.5252 54.96C65.5271 55.3616 65.5066 55.763 65.4637 56.1623C65.2023 58.2102 64.3862 60.0294 63.3856 60.7969C63.1139 61.0321 62.7601 61.1501 62.4016 61.1253C61.4121 61.0208 60.6876 59.3375 60.6519 57.0952ZM91.5415 43.5585L92.9671 42.9336C92.603 45.1021 93.0415 46.7177 94.1541 47.2042C96.2174 48.0443 98.4591 45.0351 99.3299 42.8438C99.7116 41.8655 99.9734 40.8445 100.11 39.8033L103 38.5376C102.748 40.2298 102.29 41.8849 101.637 43.4662C99.4584 48.6322 95.5722 52.1783 93.1498 51.2115C91.3712 50.468 90.7304 47.3991 91.5415 43.5585Z" fill="black"/>
<path d="M27.9645 51.8623C29.7874 52.2491 31.382 48.2762 30.7837 45.7393C30.5825 44.8857 30.1594 44.3494 29.5924 44.2283C27.7351 43.8353 26.1828 47.8475 26.7732 50.3512C26.975 51.2048 27.3968 51.7411 27.9645 51.8623Z" fill="black"/>
<path d="M110.697 43.0813C109.885 48.3666 108.374 52.0111 105.942 54.5504C103.242 57.3708 98.5045 59.1537 94.6743 57.1063C94.6022 57.0679 94.5179 57.0597 94.4398 57.0834C94.3618 57.1072 94.2963 57.161 94.2579 57.233C94.2195 57.305 94.2112 57.3894 94.235 57.4674C94.2588 57.5455 94.3126 57.611 94.3846 57.6494C98.3157 59.7502 103.352 58.1457 106.387 54.976C108.908 52.3407 110.472 48.591 111.307 43.1747C111.313 43.1347 111.311 43.0939 111.302 43.0546C111.292 43.0152 111.275 42.9782 111.251 42.9456C111.227 42.9129 111.197 42.8853 111.162 42.8643C111.127 42.8434 111.089 42.8294 111.049 42.8233C111.009 42.8171 110.968 42.8189 110.929 42.8286C110.889 42.8382 110.852 42.8555 110.82 42.8795C110.787 42.9034 110.76 42.9336 110.739 42.9682C110.718 43.0028 110.704 43.0412 110.697 43.0813Z" fill="black"/>
<path d="M109.596 54.5025C109.527 54.4592 109.443 54.4451 109.364 54.4634C109.285 54.4816 109.216 54.5306 109.172 54.5997C103.699 63.3074 90.4092 62.332 86.3804 52.6839C86.366 52.6451 86.3439 52.6095 86.3154 52.5794C86.2869 52.5493 86.2527 52.5252 86.2147 52.5087C86.1767 52.4922 86.1357 52.4835 86.0943 52.4832C86.0528 52.4829 86.0117 52.4909 85.9735 52.5069C85.9353 52.5229 85.9006 52.5464 85.8717 52.5761C85.8428 52.6058 85.8202 52.641 85.8052 52.6797C85.7903 52.7183 85.7833 52.7596 85.7847 52.801C85.7861 52.8424 85.7958 52.8832 85.8133 52.9207C89.999 62.9489 103.899 64.1481 109.694 54.9262C109.715 54.892 109.73 54.8539 109.736 54.814C109.743 54.7742 109.742 54.7334 109.733 54.6941C109.724 54.6548 109.707 54.6176 109.683 54.5847C109.66 54.5518 109.63 54.5239 109.596 54.5025Z" fill="black"/>
<path d="M70.2988 60.4814C70.2205 60.4588 70.1364 60.4681 70.0651 60.5075C69.9937 60.5468 69.9408 60.6128 69.9181 60.6911C69.604 61.8742 68.9652 62.9458 68.0741 63.785C67.183 64.6242 66.0749 65.1975 64.8751 65.4401C62.4151 65.8184 59.8893 64.1628 59.4724 61.8971C59.465 61.8573 59.4499 61.8194 59.4279 61.7855C59.4059 61.7515 59.3774 61.7223 59.3441 61.6993C59.3107 61.6764 59.2732 61.6603 59.2337 61.6518C59.1941 61.6434 59.1533 61.6428 59.1135 61.6502C59.0737 61.6575 59.0358 61.6727 59.0019 61.6947C58.9679 61.7167 58.9386 61.7452 58.9157 61.7785C58.8928 61.8118 58.8766 61.8493 58.8682 61.8889C58.8598 61.9284 58.8592 61.9693 58.8666 62.009C59.2971 64.3417 61.671 66.1086 64.174 66.1086C66.8524 66.1086 69.6014 64.0047 70.5122 60.8621C70.5233 60.8231 70.5267 60.7822 70.5219 60.7419C70.5172 60.7017 70.5046 60.6627 70.4848 60.6273C70.4649 60.5919 70.4383 60.5608 70.4064 60.5358C70.3744 60.5107 70.3379 60.4922 70.2988 60.4814Z" fill="black"/>
<path d="M66.2483 67.8757C65.2085 68.282 64.081 68.4112 62.9763 68.2506C61.8715 68.0899 60.8275 67.645 59.9465 66.9594C59.0655 66.2738 58.3778 65.371 57.9507 64.3395C57.5236 63.3081 57.3719 62.1834 57.5104 61.0757C57.5172 60.9963 57.4929 60.9174 57.4427 60.8556C57.3925 60.7938 57.3203 60.7538 57.2412 60.7442C57.1622 60.7346 57.0825 60.756 57.0189 60.8039C56.9553 60.8519 56.9128 60.9226 56.9003 61.0013C56.7566 62.212 56.9279 63.4394 57.3976 64.5645C57.8673 65.6897 58.6195 66.6746 59.5814 67.4238C60.5433 68.1731 61.6823 68.6613 62.8882 68.8413C64.0941 69.0214 65.326 68.887 66.4648 68.4514C66.5411 68.4227 66.6029 68.3648 66.6366 68.2905C66.6703 68.2163 66.6731 68.1316 66.6444 68.0553C66.6157 67.979 66.5578 67.9172 66.4835 67.8835C66.4093 67.8498 66.3246 67.847 66.2483 67.8757Z" fill="black"/>
</svg>
