<svg width="123" height="123" viewBox="0 0 123 123" fill="none" xmlns="http://www.w3.org/2000/svg">
<path d="M104.322 110.007C80.8516 114.022 54.2486 118.574 29.4702 112.692C24.9334 111.599 19.0841 109.91 14.0768 106.525C8.61434 102.884 4.98153 99.2854 3.75153 92.6071C2.72879 86.9528 3.87822 80.6866 6.9889 74.9622C10.0356 69.2574 14.6426 64.3891 19.0355 59.6659C19.0911 59.6061 19.1207 59.5267 19.1178 59.4451C19.1148 59.3635 19.0796 59.2864 19.0198 59.2308C18.9601 59.1752 18.8806 59.1456 18.799 59.1485C18.7174 59.1515 18.6403 59.1867 18.5847 59.2465C14.1235 64.0232 9.53438 68.8909 6.44708 74.6707C3.27122 80.5132 2.09903 86.9252 3.14637 92.7178C4.41327 99.5868 8.29638 103.41 13.7348 107.036C24.2126 114.118 42.6607 116.12 55.5019 116.12C72.2367 116.12 89.0084 113.251 104.426 110.614C104.507 110.6 104.579 110.555 104.626 110.488C104.673 110.422 104.692 110.339 104.678 110.259C104.664 110.178 104.619 110.107 104.553 110.06C104.486 110.012 104.404 109.994 104.323 110.007H104.322Z" fill="black"/>
<path d="M112.89 105.497C90.3815 108.88 64.8725 112.713 40.973 107.071C37.1907 106.173 33.2652 104.996 30.181 102.49C25.1011 98.3446 24.7149 92.6387 29.1183 86.8362C34.4109 79.9844 41.6722 75.0134 48.0633 70.8923C48.1282 70.8466 48.1729 70.7776 48.1881 70.6997C48.2032 70.6218 48.1877 70.5411 48.1448 70.4744C48.1018 70.4077 48.0347 70.3601 47.9575 70.3418C47.8804 70.3234 47.799 70.3355 47.7306 70.3757C41.2965 74.5245 33.9835 79.5306 28.6299 86.4622C23.9965 92.5673 24.4197 98.5826 29.7923 102.967C32.9737 105.55 36.9779 106.754 40.8315 107.669C64.434 113.242 89.3311 109.659 112.982 106.105C113.059 106.09 113.128 106.045 113.174 105.98C113.219 105.916 113.238 105.836 113.227 105.757C113.215 105.679 113.173 105.608 113.111 105.56C113.048 105.511 112.969 105.489 112.89 105.497Z" fill="black"/>
<path d="M107.659 108.438C92.9735 110.708 78.1657 112.105 63.3142 112.62C57.1102 112.804 50.9009 112.564 44.7295 111.903C35.1091 110.793 25.7082 107.37 19.5834 102.747C16.395 100.34 14.2026 96.8447 13.4236 92.9264C10.9525 80.3454 24.8743 67.9605 29.1996 64.4636C29.2606 64.4116 29.2989 64.3378 29.3063 64.2579C29.3137 64.178 29.2896 64.0984 29.2392 64.0361C29.1887 63.9737 29.1158 63.9336 29.0362 63.9242C28.9565 63.9148 28.8763 63.9369 28.8127 63.9858C24.4192 67.5362 10.2828 80.1264 12.8227 93.0451C13.6307 97.1107 15.9049 100.738 19.2126 103.236C25.4241 107.922 34.9344 111.39 44.6613 112.512C50.8622 113.175 57.101 113.415 63.3345 113.233C78.2108 112.717 93.0434 111.319 107.754 109.046C107.835 109.034 107.907 108.99 107.955 108.924C108.003 108.858 108.023 108.775 108.011 108.695C107.998 108.614 107.954 108.542 107.888 108.494C107.822 108.445 107.74 108.425 107.659 108.438Z" fill="black"/>
<path d="M6.2176 81.9548C6.20988 81.999 6.21193 82.0444 6.22361 82.0877C6.23529 82.131 6.25631 82.1713 6.28521 82.2056C6.3141 82.24 6.35017 82.2676 6.39086 82.2865C6.43156 82.3054 6.47591 82.3152 6.52079 82.3152C7.32644 82.3152 6.0208 80.5889 10.6948 74.0127C13.9774 69.3199 17.7074 64.9565 21.8324 60.9839C21.8911 60.9268 21.9246 60.8488 21.9257 60.7669C21.9268 60.6851 21.8954 60.6062 21.8383 60.5475C21.7812 60.4889 21.7032 60.4553 21.6213 60.4543C21.5395 60.4532 21.4606 60.4846 21.4019 60.5417C17.2497 64.5411 13.4954 68.9339 10.1917 73.6584C8.53369 75.9917 6.76495 78.801 6.2176 81.9548Z" fill="black"/>
<path d="M21.3859 95.935C22.3084 99.847 25.6497 103.589 30.5611 106.205C34.5347 108.32 38.8686 109.364 43.7129 110.418C43.7531 110.428 43.795 110.431 43.8361 110.425C43.8772 110.419 43.9167 110.405 43.9522 110.383C43.9877 110.361 44.0184 110.333 44.0425 110.299C44.0666 110.265 44.0836 110.227 44.0925 110.186C44.1013 110.145 44.1019 110.103 44.094 110.063C44.0862 110.022 44.0702 109.983 44.047 109.949C44.0238 109.914 43.9938 109.885 43.9589 109.862C43.924 109.84 43.8849 109.824 43.8439 109.817C39.0469 108.772 34.7542 107.74 30.8502 105.662C26.0956 103.132 22.8638 99.5364 21.9843 95.7984C20.0698 87.5015 26.2192 77.814 32.9775 72.9112C33.0115 72.8881 33.0406 72.8583 33.0629 72.8237C33.0853 72.7891 33.1004 72.7504 33.1075 72.7098C33.1146 72.6693 33.1135 72.6277 33.1042 72.5876C33.095 72.5475 33.0777 72.5096 33.0535 72.4763C33.0293 72.4429 32.9987 72.4148 32.9634 72.3935C32.9282 72.3723 32.889 72.3583 32.8482 72.3525C32.8075 72.3466 32.766 72.349 32.7261 72.3596C32.6863 72.3701 32.649 72.3885 32.6165 72.4137C25.6983 77.4284 19.4112 87.3797 21.3859 95.935Z" fill="black"/>
<path d="M30.5507 81.0451C30.6075 81.1036 30.6853 81.1371 30.7668 81.1382C30.8484 81.1394 30.927 81.1081 30.9855 81.0513C38.5254 73.6802 47.2464 67.6236 56.7866 63.1326C56.8522 63.0935 56.9009 63.0313 56.9231 62.9582C56.9454 62.8851 56.9396 62.8064 56.907 62.7373C56.8744 62.6682 56.8172 62.6137 56.7467 62.5845C56.6761 62.5553 56.5971 62.5534 56.5252 62.5791C46.9228 67.098 38.1452 73.1936 30.5568 80.6128C30.4991 80.6695 30.4661 80.7467 30.4649 80.8277C30.4638 80.9086 30.4946 80.9868 30.5507 81.0451Z" fill="black"/>
<path d="M58.1421 39.8434C61.409 41.2179 66.1703 33.98 65.9317 28.6012C65.7748 25.0779 63.3813 24.0434 60.7331 26.4143C56.818 29.9173 54.7885 38.4314 58.1421 39.8434Z" fill="black"/>
<path d="M120.131 34.6306C119.81 32.1795 119.012 29.815 117.782 27.6706C116.84 26.0117 115.618 24.529 114.169 23.2887C114.348 23.0323 113.943 22.2383 113.842 22.0587C112.924 20.4278 110.588 18.9733 107.144 16.9647C102.388 14.1615 97.5046 10.9992 92.3152 9.22554C86.5133 7.24155 81.0398 6.5097 76.0313 7.05397C74.0633 7.29997 68.7078 7.69111 64.5886 10.6339C59.4041 14.3374 60.1606 13.9856 59.9306 13.9801C56.9171 13.9309 53.9651 15.1191 50.9042 17.6455C48.2197 19.8595 46.213 21.6793 43.2345 24.595C38.1227 29.7044 36.5526 33.0254 34.1664 39.8033C31.8294 42.3962 29.5305 45.0019 27.2697 47.6206C24.3676 50.984 23.8872 55.8671 23.2107 60.193C23.2017 60.2521 23.2101 60.3126 23.2349 60.367C23.2596 60.4214 23.2997 60.4674 23.3502 60.4993C23.4007 60.5313 23.4595 60.5479 23.5192 60.547C23.579 60.5461 23.6372 60.5278 23.6868 60.4944L28.3337 61.3111C28.6331 61.6443 29.0277 61.8775 29.4641 61.979C30.8995 62.2865 32.7309 62.9562 34.1873 62.3086C37.3711 62.8886 51.3716 65.2508 55.5561 66.0337C55.6186 66.0447 55.6829 66.0363 55.7406 66.0097C55.9208 66.094 55.4367 66.2557 62.0431 63.3652C62.1341 65.7699 62.9656 67.4685 64.1808 67.7157C65.1132 68.0002 66.0881 68.1195 67.0615 68.0681C68.8032 67.9919 70.356 65.6801 70.7515 62.5694C70.8893 61.5715 70.8766 60.5586 70.714 59.5645L92.8527 49.8592C92.1326 53.7116 92.838 56.7128 94.7008 57.6814C96.355 58.4796 98.0578 59.1729 99.7992 59.757C100.054 59.8083 100.313 59.8353 100.573 59.8376C103.492 59.8376 106.935 56.5689 109.034 51.671C109.968 49.5922 110.468 47.3446 110.503 45.0659C110.834 45.2821 111.207 45.4242 111.598 45.4826C111.989 45.541 112.388 45.5142 112.768 45.4041C115.089 44.0142 117.15 41.0481 118.586 39.4694C120.186 37.7794 120.4 36.7185 120.131 34.6306ZM81.9709 23.7328C83.5945 22.8158 84.6013 22.1633 86.3079 21.7826C90.0077 21.2906 94.2992 23.0618 97.7143 24.571C102.589 26.6878 107.672 29.1368 111.827 32.6982C112.526 33.2507 113.174 33.8649 113.762 34.5334C113.762 34.542 113.769 34.55 113.773 34.558C114.629 36.272 113.549 37.9903 112.274 39.4319L81.9709 23.7328ZM56.2565 30.9283C60.3408 21.2211 68.0898 18.0569 68.4668 26.5815C68.4949 29.5842 67.877 32.5579 66.655 35.3009C65.075 39.0567 61.2663 44.8383 57.5917 44.6028C53.0518 44.3125 54.1815 35.8661 56.2565 30.927V30.9283ZM27.8288 60.5977L24.1751 59.9563C24.6558 59.4469 25.1921 58.993 25.7741 58.6033C25.87 58.5418 25.9334 58.471 26.0201 58.0627C26.1043 57.6679 26.2101 56.9557 26.3891 55.6193C26.6356 53.237 27.4172 50.9412 28.6756 48.9035C29.4887 47.6268 30.7759 46.4146 32.231 46.8039C32.4284 46.8786 32.6082 46.9934 32.7592 47.1409C28.4782 47.0923 25.6209 56.5363 27.8288 60.5977ZM37.2863 50.2042C36.5716 50.8743 35.8128 51.4958 35.0151 52.0646C35.0071 51.9133 34.9597 51.4797 34.9462 51.3266C35.4997 50.8401 36.1965 50.2706 36.9757 49.6519C37.0446 49.7645 37.2272 50.0837 37.2863 50.2048V50.2042ZM59.8205 16.592C61.4281 14.9038 64.6415 12.7981 66.9034 13.2772C67.8069 13.567 68.5702 14.1826 69.0449 15.0041C65.6107 13.5109 60.5843 16.1246 58.1833 19.0631C57.9705 19.3234 57.7655 19.5899 57.5683 19.8626C58.2136 18.7034 58.9677 17.6083 59.8205 16.592ZM73.8751 27.654C73.9486 28.0045 74.0038 28.3586 74.0405 28.7149C73.9827 28.686 71.2982 27.3619 69.9907 26.8379C70.3005 25.6185 70.3952 24.3544 70.2706 23.1024C70.5639 23.2672 70.8511 23.4382 71.1279 23.6122C71.1062 24.3279 71.0394 25.0415 70.928 25.7487C70.8038 26.619 72.2681 27.202 73.8751 27.654ZM114.706 35.9879C114.9 36.384 114.995 36.8218 114.982 37.263C114.969 37.7042 114.847 38.1355 114.629 38.5192C113.474 40.5875 111.633 42.24 109.849 43.8334L109.253 42.6416C111.48 41.4109 114.619 38.443 114.706 35.9879ZM117.135 30.8631C106.588 20.9487 92.7728 16.2759 83.4371 16.6609C79.236 16.8343 74.297 19.6307 73.3861 20.3306C73.3427 19.8206 73.2771 19.3124 73.1893 18.806C75.809 16.9613 78.7304 15.5877 81.8221 14.747C85.2337 13.8423 88.8278 13.8876 92.2156 14.878C98.5034 16.8128 105.712 20.5975 111.041 24.0292C117.382 28.1497 117.794 29.8877 118.322 30.1878C118.737 31.1982 119.058 32.2441 119.284 33.3126C118.67 32.4112 117.949 31.5886 117.135 30.8631ZM117.386 28.2247C115.837 26.6888 114.125 25.3254 112.282 24.1584C104.386 19.0151 98.4246 16.3571 93.3909 14.6148C86.1732 12.116 79.4341 13.8307 73.0627 18.1516C72.8194 17.0023 72.4694 15.8781 72.0171 14.7937C74.7231 13.4057 77.1327 12.3534 79.3307 11.4315C80.4655 10.9407 81.666 10.6187 82.894 10.4758C87.8755 10.0226 92.4745 11.1659 98.2813 14.2987C102.046 16.2808 105.555 18.3626 109.121 20.5022C112.586 22.5089 115.49 24.7678 117.386 28.2247ZM36.2936 35.8723C40.1208 31.7714 44.0137 27.2623 48.093 23.4388C51.125 20.3775 54.3301 17.4927 57.6926 14.7987C58.2092 14.694 58.7331 14.6293 59.2596 14.6049C51.6754 20.7439 41.7727 31.4049 35.2451 38.6084C35.5852 37.6705 35.9296 36.7585 36.2936 35.8723ZM28.4905 60.5104C27.6221 59.1574 27.4296 56.6359 27.9985 54.0978C28.8226 50.4213 30.7992 47.711 32.3859 48.0511C33.8189 48.4613 33.7961 49.7424 33.7961 51.6796C33.796 51.7386 33.8129 51.7963 33.8447 51.8459C33.8765 51.8956 33.9219 51.935 33.9755 51.9596C34.0291 51.9842 34.0886 51.9928 34.147 51.9845C34.2054 51.9762 34.2601 51.9512 34.3047 51.9127C34.424 54.6685 33.5052 58.5498 31.5877 60.5036C30.3275 61.7385 29.1406 61.527 28.4905 60.5104ZM37.464 49.2688C40.6497 46.7737 49.8599 40.0653 49.9657 39.9903C51.291 39.0524 52.7984 37.994 52.9743 36.3464C53.5389 30.8631 55.1551 23.7322 58.6587 19.4493C61.0788 16.4924 66.7226 13.6855 69.6248 16.0668C70.5939 18.2137 71.1079 20.538 71.1346 22.8933C69.8914 22.1319 68.5586 21.5276 67.1666 21.0944C57.6987 18.5114 49.2911 42.2314 56.2639 45.1655C56.2719 45.1692 61.2626 47.0105 62.2171 47.2036C68.7005 48.5031 75.9347 35.6097 74.5356 27.8311C75.1358 27.9757 75.2219 27.9314 75.292 27.8963C75.292 27.8963 79.5128 25.151 81.3344 24.0956L96.9788 32.2013L82.359 39.9645L74.169 36.6029C73.9614 37.4009 73.6539 38.1696 73.2539 38.8907L79.8012 41.3224L49.5487 57.3868L38.9295 55.0098C38.8524 55.6037 38.7432 56.1929 38.6024 56.7749L47.3292 58.5651L39.6583 62.6383L34.9935 61.8253C38.0101 59.5319 39.5728 52.6648 37.464 49.2688ZM55.7406 65.4531C55.6791 65.4242 56.5235 65.5761 40.646 62.8086L48.2775 58.7583L63.2583 61.8093C63.9773 61.4821 64.631 61.2207 65.3493 60.8941L50.4731 57.5922L80.5706 41.6102L95.94 47.3629C96.79 46.9712 97.3779 46.775 98.0968 46.4478L83.097 40.2689L97.6417 32.5451L111.838 39.8999C110.919 40.8438 109.856 41.6361 108.689 42.2473C57.1717 64.8252 55.8027 65.4218 55.7406 65.4531ZM62.6519 63.0952L63.1759 62.8658C63.2811 63.7398 63.6913 64.7988 64.5584 64.7988C65.468 64.7988 66.3505 63.4999 66.5646 61.8259C66.6172 61.6724 66.6417 61.5108 66.6371 61.3486L67.5252 60.96C67.5271 61.3616 67.5066 61.763 67.4637 62.1623C67.2023 64.2102 66.3862 66.0294 65.3856 66.7969C65.1139 67.0321 64.7601 67.1501 64.4016 67.1253C63.4121 67.0208 62.6876 65.3375 62.6519 63.0952ZM93.5415 49.5585L94.9671 48.9336C94.603 51.1021 95.0415 52.7177 96.1541 53.2042C98.2174 54.0443 100.459 51.0351 101.33 48.8438C101.712 47.8655 101.973 46.8445 102.11 45.8033L105 44.5376C104.748 46.2298 104.29 47.8849 103.637 49.4662C101.458 54.6322 97.5722 58.1783 95.1498 57.2115C93.3712 56.468 92.7304 53.3991 93.5415 49.5585Z" fill="black"/>
<path d="M29.9645 57.8623C31.7874 58.2491 33.382 54.2762 32.7837 51.7393C32.5825 50.8857 32.1594 50.3494 31.5924 50.2283C29.7351 49.8353 28.1828 53.8475 28.7732 56.3512C28.975 57.2048 29.3968 57.7411 29.9645 57.8623Z" fill="black"/>
<path d="M112.697 49.0813C111.885 54.3666 110.374 58.0111 107.942 60.5504C105.242 63.3708 100.504 65.1537 96.6743 63.1063C96.6022 63.0679 96.5179 63.0597 96.4398 63.0834C96.3618 63.1072 96.2963 63.161 96.2579 63.233C96.2195 63.305 96.2112 63.3894 96.235 63.4674C96.2588 63.5455 96.3126 63.611 96.3846 63.6494C100.316 65.7502 105.352 64.1457 108.387 60.976C110.908 58.3407 112.472 54.591 113.307 49.1747C113.313 49.1347 113.311 49.0939 113.302 49.0546C113.292 49.0152 113.275 48.9782 113.251 48.9456C113.227 48.9129 113.197 48.8853 113.162 48.8643C113.127 48.8434 113.089 48.8294 113.049 48.8233C113.009 48.8171 112.968 48.8189 112.929 48.8286C112.889 48.8382 112.852 48.8555 112.82 48.8795C112.787 48.9034 112.76 48.9336 112.739 48.9682C112.718 49.0028 112.704 49.0412 112.697 49.0813Z" fill="black"/>
<path d="M111.596 60.5025C111.527 60.4592 111.443 60.4451 111.364 60.4634C111.285 60.4816 111.216 60.5306 111.172 60.5997C105.699 69.3074 92.4092 68.332 88.3804 58.6839C88.366 58.6451 88.3439 58.6095 88.3154 58.5794C88.2869 58.5493 88.2527 58.5252 88.2147 58.5087C88.1767 58.4922 88.1357 58.4835 88.0943 58.4832C88.0528 58.4829 88.0117 58.4909 87.9735 58.5069C87.9353 58.5229 87.9006 58.5464 87.8717 58.5761C87.8428 58.6058 87.8202 58.641 87.8052 58.6797C87.7903 58.7183 87.7833 58.7596 87.7847 58.801C87.7861 58.8424 87.7958 58.8832 87.8133 58.9207C91.999 68.9489 105.899 70.1481 111.694 60.9262C111.715 60.892 111.73 60.8539 111.736 60.814C111.743 60.7742 111.742 60.7334 111.733 60.6941C111.724 60.6548 111.707 60.6176 111.683 60.5847C111.66 60.5518 111.63 60.5239 111.596 60.5025Z" fill="black"/>
<path d="M72.2988 66.4814C72.2205 66.4588 72.1364 66.4681 72.0651 66.5075C71.9937 66.5468 71.9408 66.6128 71.9181 66.6911C71.604 67.8742 70.9652 68.9458 70.0741 69.785C69.183 70.6242 68.0749 71.1975 66.8751 71.4401C64.4151 71.8184 61.8893 70.1628 61.4724 67.8971C61.465 67.8573 61.4499 67.8194 61.4279 67.7855C61.4059 67.7515 61.3774 67.7223 61.3441 67.6993C61.3107 67.6764 61.2732 67.6603 61.2337 67.6518C61.1941 67.6434 61.1533 67.6428 61.1135 67.6502C61.0737 67.6575 61.0358 67.6727 61.0019 67.6947C60.9679 67.7167 60.9386 67.7452 60.9157 67.7785C60.8928 67.8118 60.8766 67.8493 60.8682 67.8889C60.8598 67.9284 60.8592 67.9693 60.8666 68.009C61.2971 70.3417 63.671 72.1086 66.174 72.1086C68.8524 72.1086 71.6014 70.0047 72.5122 66.8621C72.5233 66.8231 72.5267 66.7822 72.5219 66.7419C72.5172 66.7017 72.5046 66.6627 72.4848 66.6273C72.4649 66.5919 72.4383 66.5608 72.4064 66.5358C72.3744 66.5107 72.3379 66.4922 72.2988 66.4814Z" fill="black"/>
<path d="M68.2483 73.8757C67.2085 74.282 66.081 74.4112 64.9763 74.2506C63.8715 74.0899 62.8275 73.645 61.9465 72.9594C61.0655 72.2738 60.3778 71.371 59.9507 70.3395C59.5236 69.3081 59.3719 68.1834 59.5104 67.0757C59.5172 66.9963 59.4929 66.9174 59.4427 66.8556C59.3925 66.7938 59.3203 66.7538 59.2412 66.7442C59.1622 66.7346 59.0825 66.756 59.0189 66.8039C58.9553 66.8519 58.9128 66.9226 58.9003 67.0013C58.7566 68.212 58.9279 69.4394 59.3976 70.5645C59.8673 71.6897 60.6195 72.6746 61.5814 73.4238C62.5433 74.1731 63.6823 74.6613 64.8882 74.8413C66.0941 75.0214 67.326 74.887 68.4648 74.4514C68.5411 74.4227 68.6029 74.3648 68.6366 74.2905C68.6703 74.2163 68.6731 74.1316 68.6444 74.0553C68.6157 73.979 68.5578 73.9172 68.4835 73.8835C68.4093 73.8498 68.3246 73.847 68.2483 73.8757Z" fill="black"/>
</svg>
